<svg width="400" height="400" viewBox="0 0 400 400" fill="none" xmlns="http://www.w3.org/2000/svg">
<circle cx="199.619" cy="199.619" r="199.619" fill="url(#paint0_radial_301_333)"/>
<path d="M280.785 141.732C284.952 141.732 288.407 145.145 287.563 149.225C286.112 156.237 282.642 162.734 277.502 167.874C270.569 174.807 261.165 178.702 251.36 178.702C241.555 178.702 232.152 174.807 225.219 167.874C220.079 162.734 216.609 156.237 215.158 149.225C214.313 145.145 217.768 141.732 221.935 141.732V141.732C226.102 141.732 229.359 145.207 230.768 149.129C231.848 152.137 233.585 154.901 235.889 157.204C239.992 161.308 245.557 163.613 251.36 163.613C257.163 163.613 262.729 161.308 266.832 157.204C269.136 154.901 270.872 152.137 271.953 149.129C273.361 145.207 276.619 141.732 280.785 141.732V141.732Z" fill="#453A30"/>
<path d="M169.876 141.732C174.043 141.732 177.498 145.145 176.654 149.225C175.202 156.237 171.732 162.734 166.593 167.874C159.66 174.807 150.256 178.702 140.451 178.702C130.646 178.702 121.243 174.807 114.31 167.874C109.17 162.734 105.7 156.237 104.249 149.225C103.404 145.145 106.859 141.732 111.026 141.732V141.732C115.193 141.732 118.45 145.207 119.859 149.129C120.939 152.137 122.676 154.901 124.979 157.204C129.083 161.308 134.648 163.613 140.451 163.613C146.254 163.613 151.82 161.308 155.923 157.204C158.226 154.901 159.963 152.137 161.044 149.129C162.452 145.207 165.709 141.732 169.876 141.732V141.732Z" fill="#453A30"/>
<path d="M112.39 282.846C107.637 282.46 104.054 278.283 104.881 273.586C108.369 253.77 118.251 235.545 133.135 221.773C150.14 206.037 172.435 197.263 195.603 197.187C218.771 197.111 241.123 205.74 258.231 221.363C273.205 235.037 283.206 253.198 286.823 272.991C287.681 277.682 284.126 281.883 279.375 282.299V282.299C274.624 282.715 270.486 279.184 269.528 274.512C266.354 259.034 258.36 244.869 246.585 234.116C232.674 221.412 214.499 214.396 195.66 214.457C176.821 214.519 158.692 221.654 144.864 234.449C133.159 245.279 125.259 259.496 122.186 274.994C121.259 279.672 117.144 283.231 112.39 282.846V282.846Z" fill="#453A30"/>
<defs>
<radialGradient id="paint0_radial_301_333" cx="0" cy="0" r="1" gradientUnits="userSpaceOnUse" gradientTransform="translate(199.619 199.619) rotate(90) scale(199.619)">
<stop offset="0.5" stop-color="#EEA89E"/>
<stop offset="1" stop-color="#E87F71"/>
</radialGradient>
</defs>
</svg>
